<svg viewBox="0 0 24 24" fill="#e11d48"><path d="M14,2H6A2,2 0 0,0 4,4V20A2,2 0 0,0 6,22H18A2,2 0 0,0 20,20V8L14,2M18,20H6V4H13V9H18V20M10.92,12.31C10.68,11.54 10.15,9.08 11.55,9.08C12.95,9.08 12.34,11.55 12.1,12.31C12.41,13.28 12.95,14 13.54,14C14.69,14 15,12.58 15,12.58C15.21,12.75 15.38,13 15.37,13.15C15.37,13.15 14.89,15 13.54,15C12.66,15 12,14.58 11.5,13.89C11.05,14.04 10.5,14.15 9.97,14.15C8.53,14.15 8,13.46 8,12.65C8,11.65 9.12,11.21 10.06,11.2L10.5,11.2C10.65,11.68 10.79,12.04 10.92,12.31M9.56,12.88C9.56,12.88 9.51,13.46 9.97,13.46C10.37,13.46 10.67,13.35 10.95,13.19C10.71,12.67 10.5,12.07 10.35,11.5L10.06,11.5C9.64,11.5 9.56,12.18 9.56,12.88Z"/></svg>